<svg width="30" height="26" viewBox="0 0 30 26" fill="none" xmlns="http://www.w3.org/2000/svg">
<path d="M9.42377 25.125C20.7443 25.125 26.9388 15.7445 26.9388 7.62346C26.9388 7.35956 26.9388 7.09566 26.9268 6.83175C28.1273 5.96807 29.1717 4.87648 30 3.64093C28.8956 4.13275 27.7071 4.45663 26.4586 4.61257C27.7311 3.85685 28.7035 2.6453 29.1717 1.20583C27.9832 1.91357 26.6627 2.41738 25.2581 2.69328C24.1297 1.49373 22.533 0.75 20.7683 0.75C17.3709 0.75 14.6098 3.50898 14.6098 6.90373C14.6098 7.38355 14.6699 7.85138 14.7659 8.30721C9.65186 8.0553 5.11405 5.59621 2.07683 1.87758C1.54862 2.78925 1.2485 3.84486 1.2485 4.97244C1.2485 7.10765 2.34094 8.99096 3.98559 10.0945C2.97719 10.0586 2.02881 9.78266 1.20048 9.32683C1.20048 9.35082 1.20048 9.37482 1.20048 9.4108C1.20048 12.3857 3.32533 14.8808 6.13445 15.4446C5.61825 15.5885 5.07803 15.6605 4.51381 15.6605C4.11765 15.6605 3.73349 15.6245 3.36134 15.5525C4.14166 17.9996 6.42257 19.775 9.11164 19.823C6.9988 21.4783 4.34574 22.462 1.46459 22.462C0.97239 22.462 0.480192 22.438 0 22.378C2.71309 24.1054 5.95438 25.125 9.42377 25.125Z" fill="black"/>
</svg>
